<?xml version="1.0" encoding="utf-8"?>
<!-- Generator: Adobe Illustrator 16.0.0, SVG Export Plug-In . SVG Version: 6.00 Build 0)  -->
<!DOCTYPE svg PUBLIC "-//W3C//DTD SVG 1.1//EN" "http://www.w3.org/Graphics/SVG/1.1/DTD/svg11.dtd">
<svg version="1.1" id="Layer_1" xmlns="http://www.w3.org/2000/svg" xmlns:xlink="http://www.w3.org/1999/xlink" x="0px" y="0px"
	 width="612px" height="792px" viewBox="0 0 612 792" enable-background="new 0 0 612 792" xml:space="preserve">
<rect stroke="#FFFFFF" stroke-miterlimit="10" width="612" height="792"/>
<text transform="matrix(1 0 0 1 306 -84.126)" fill="#FFFFFF" font-family="'RockwellStd'" font-size="774.4469" glyph-orientation-vertical="0" writing-mode="tb">V</text>
<text transform="matrix(1 0 0 1 306 222.0044)" fill="#FFFFFF" font-family="'RockwellStd'" font-size="575.7134" glyph-orientation-vertical="0" writing-mode="tb">V</text>
<g>
	<g>
		<path fill="#FFFFFF" stroke="#000000" stroke-width="10" stroke-miterlimit="10" d="M306,165.241
			c138.186,0,250.004,111.816,250.004,250c0,138.185-111.818,250.001-250.004,250.001c-138.187,0-250.004-111.816-250.004-250.001
			C55.996,277.057,167.813,165.241,306,165.241z"/>
		<path fill="#FFFFFF" stroke="#000000" stroke-width="10" stroke-miterlimit="10" d="M67.349,415.24
			c0,131.958,106.69,238.647,238.651,238.647c131.959,0,238.65-106.689,238.65-238.647c0-131.958-106.691-238.646-238.65-238.646
			C174.039,176.594,67.349,283.283,67.349,415.24z"/>
		<path fill="#FFFFFF" stroke="#000000" stroke-width="10" stroke-miterlimit="10" d="M306,187.946
			c125.611,0,227.299,101.685,227.299,227.294c0,125.61-101.688,227.296-227.299,227.296
			c-125.613,0-227.299-101.686-227.299-227.296C78.701,289.63,180.387,187.946,306,187.946z"/>
		<path fill="#FFFFFF" stroke="#000000" stroke-width="10" stroke-miterlimit="10" d="M90.055,415.24
			c0,119.386,96.558,215.942,215.945,215.942c119.387,0,215.945-96.557,215.945-215.942c0-119.384-96.559-215.941-215.945-215.941
			C186.612,199.299,90.055,295.856,90.055,415.24z"/>
		<path fill="#FFFFFF" stroke="#000000" stroke-width="10" stroke-miterlimit="10" d="M306,210.651
			c113.039,0,204.592,91.553,204.592,204.589c0,113.038-91.553,204.591-204.592,204.591S101.406,528.278,101.406,415.24
			C101.406,302.204,192.961,210.651,306,210.651z"/>
		<path fill="#FFFFFF" stroke="#000000" stroke-width="10" stroke-miterlimit="10" d="M112.76,415.24
			c0,106.812,86.427,193.237,193.24,193.237c106.812,0,193.24-86.426,193.24-193.237S412.812,222.004,306,222.004
			C199.187,222.004,112.76,308.429,112.76,415.24z"/>
		<path fill="#FFFFFF" stroke="#000000" stroke-width="10" stroke-miterlimit="10" d="M306,233.479
			c100.465,0,181.766,81.298,181.766,181.762S406.465,597.005,306,597.005c-100.466,0-181.766-81.301-181.766-181.765
			S205.534,233.479,306,233.479z"/>
		<path fill="#FFFFFF" stroke="#000000" stroke-width="10" stroke-miterlimit="10" d="M135.587,415.24
			c0,94.239,76.173,170.411,170.413,170.411s170.412-76.172,170.412-170.411c0-94.237-76.172-170.41-170.412-170.41
			S135.587,321.003,135.587,415.24z"/>
		<path fill="#FFFFFF" stroke="#000000" stroke-width="10" stroke-miterlimit="10" d="M306,256.184
			c87.891,0,159.061,71.167,159.061,159.057c0,87.892-71.17,159.058-159.061,159.058c-87.893,0-159.061-71.166-159.061-159.058
			C146.939,327.351,218.107,256.184,306,256.184z"/>
		<path fill="#FFFFFF" stroke="#000000" stroke-width="10" stroke-miterlimit="10" d="M158.292,415.24
			c0,81.665,66.041,147.706,147.708,147.706c81.666,0,147.707-66.041,147.707-147.706S387.666,267.536,306,267.536
			C224.333,267.536,158.292,333.575,158.292,415.24z"/>
		<path fill="#FFFFFF" stroke="#000000" stroke-width="10" stroke-miterlimit="10" d="M306,278.889
			c75.318,0,136.355,61.034,136.355,136.352c0,75.319-61.037,136.353-136.355,136.353c-75.319,0-136.354-61.033-136.354-136.353
			C169.646,339.923,230.681,278.889,306,278.889z"/>
		<path fill="#FFFFFF" stroke="#000000" stroke-width="10" stroke-miterlimit="10" d="M180.998,415.24
			c0,69.093,55.908,125.001,125.002,125.001c69.092,0,125.002-55.908,125.002-125.001c0-69.091-55.91-125-125.002-125
			C236.906,290.241,180.998,346.149,180.998,415.24z"/>
		<path fill="#FFFFFF" stroke="#000000" stroke-width="10" stroke-miterlimit="10" d="M306,301.593
			c62.867,0,113.648,50.781,113.648,113.647S368.867,528.888,306,528.888c-62.868,0-113.649-50.781-113.649-113.647
			S243.132,301.593,306,301.593z"/>
		<path fill="#FFFFFF" stroke="#000000" stroke-width="10" stroke-miterlimit="10" d="M203.703,415.24
			c0,56.521,45.777,102.296,102.297,102.296s102.297-45.775,102.297-102.296c0-56.519-45.777-102.295-102.297-102.295
			S203.703,358.722,203.703,415.24z"/>
		<path fill="#FFFFFF" stroke="#000000" stroke-width="10" stroke-miterlimit="10" d="M306,324.298
			c50.293,0,90.943,40.65,90.943,90.942c0,50.294-40.65,90.942-90.943,90.942c-50.294,0-90.944-40.648-90.944-90.942
			C215.056,364.948,255.706,324.298,306,324.298z"/>
		<path fill="#FFFFFF" stroke="#000000" stroke-width="10" stroke-miterlimit="10" d="M226.409,415.24
			c0,43.946,35.645,79.591,79.591,79.591c43.947,0,79.592-35.645,79.592-79.591c0-43.945-35.645-79.59-79.592-79.59
			C262.054,335.65,226.409,371.295,226.409,415.24z"/>
		<path fill="#FFFFFF" stroke="#000000" stroke-width="10" stroke-miterlimit="10" d="M306,347.003
			c37.721,0,68.238,30.518,68.238,68.237c0,37.722-30.518,68.237-68.238,68.237s-68.239-30.516-68.239-68.237
			C237.761,377.521,268.279,347.003,306,347.003z"/>
		<path fill="#FFFFFF" stroke="#000000" stroke-width="10" stroke-miterlimit="10" d="M249.236,415.24
			c0,31.374,25.391,56.763,56.764,56.763s56.764-25.389,56.764-56.763c0-31.372-25.391-56.763-56.764-56.763
			S249.236,383.868,249.236,415.24z"/>
		<path fill="#FFFFFF" stroke="#000000" stroke-width="10" stroke-miterlimit="10" d="M306,369.83
			c25.146,0,45.41,20.264,45.41,45.41c0,25.147-20.264,45.411-45.41,45.411c-25.147,0-45.411-20.264-45.411-45.411
			C260.589,390.094,280.853,369.83,306,369.83z"/>
		<path fill="#FFFFFF" stroke="#000000" stroke-width="10" stroke-miterlimit="10" d="M271.941,415.24
			c0,18.8,15.259,34.058,34.059,34.058c18.799,0,34.059-15.258,34.059-34.058c0-18.798-15.26-34.058-34.059-34.058
			C287.2,381.183,271.941,396.442,271.941,415.24z"/>
		<path fill="#FFFFFF" stroke="#000000" stroke-width="10" stroke-miterlimit="10" d="M306,392.535
			c12.574,0,22.705,10.132,22.705,22.705c0,12.575-10.131,22.706-22.705,22.706c-12.573,0-22.706-10.131-22.706-22.706
			C283.294,402.667,293.427,392.535,306,392.535z"/>
		<path fill="#FFFFFF" stroke="#000000" stroke-width="10" stroke-miterlimit="10" d="M294.646,415.24
			c0,6.226,5.128,11.353,11.354,11.353c6.227,0,11.352-5.127,11.352-11.353c0-6.225-5.125-11.353-11.352-11.353
			C299.774,403.888,294.646,409.016,294.646,415.24z"/>
	</g>
	<g>
		<path fill="#FFFFFF" stroke="#000000" stroke-width="10" stroke-miterlimit="10" d="M306,165.241"/>
		<path fill="#FFFFFF" stroke="#000000" stroke-width="10" stroke-miterlimit="10" d="M306,415.24"/>
		<path fill="#FFFFFF" stroke="#000000" stroke-width="10" stroke-miterlimit="10" d="M232.269,176.349"/>
		<path fill="#FFFFFF" stroke="#000000" stroke-width="10" stroke-miterlimit="10" d="M306,415.24"/>
		<path fill="#FFFFFF" stroke="#000000" stroke-width="10" stroke-miterlimit="10" d="M165.128,208.698"/>
		<path fill="#FFFFFF" stroke="#000000" stroke-width="10" stroke-miterlimit="10" d="M306,415.24"/>
		<path fill="#FFFFFF" stroke="#000000" stroke-width="10" stroke-miterlimit="10" d="M110.562,259.357"/>
		<path fill="#FFFFFF" stroke="#000000" stroke-width="10" stroke-miterlimit="10" d="M306,415.24"/>
		<path fill="#FFFFFF" stroke="#000000" stroke-width="10" stroke-miterlimit="10" d="M73.33,323.933"/>
		<path fill="#FFFFFF" stroke="#000000" stroke-width="10" stroke-miterlimit="10" d="M306,415.24"/>
		<path fill="#FFFFFF" stroke="#000000" stroke-width="10" stroke-miterlimit="10" d="M56.729,396.563"/>
		<path fill="#FFFFFF" stroke="#000000" stroke-width="10" stroke-miterlimit="10" d="M306,415.24"/>
		<path fill="#FFFFFF" stroke="#000000" stroke-width="10" stroke-miterlimit="10" d="M62.222,470.905"/>
		<path fill="#FFFFFF" stroke="#000000" stroke-width="10" stroke-miterlimit="10" d="M306,415.24"/>
		<path fill="#FFFFFF" stroke="#000000" stroke-width="10" stroke-miterlimit="10" d="M89.443,540.241"/>
		<path fill="#FFFFFF" stroke="#000000" stroke-width="10" stroke-miterlimit="10" d="M306,415.24"/>
		<path fill="#FFFFFF" stroke="#000000" stroke-width="10" stroke-miterlimit="10" d="M135.953,598.468"/>
		<path fill="#FFFFFF" stroke="#000000" stroke-width="10" stroke-miterlimit="10" d="M306,415.24"/>
		<path fill="#FFFFFF" stroke="#000000" stroke-width="10" stroke-miterlimit="10" d="M197.478,640.46"/>
		<path fill="#FFFFFF" stroke="#000000" stroke-width="10" stroke-miterlimit="10" d="M306,415.24"/>
		<path stroke="#FFFFFF" stroke-width="10" stroke-miterlimit="10" d="M268.768,662.433"/>
		<path stroke="#FFFFFF" stroke-width="10" stroke-miterlimit="10" d="M306,415.24"/>
		<path fill="#FFFFFF" stroke="#000000" stroke-width="10" stroke-miterlimit="10" d="M343.232,662.433"/>
		<path fill="#FFFFFF" stroke="#000000" stroke-width="10" stroke-miterlimit="10" d="M306,415.24"/>
		<path fill="#FFFFFF" stroke="#000000" stroke-width="10" stroke-miterlimit="10" d="M414.521,640.46"/>
		<path fill="#FFFFFF" stroke="#000000" stroke-width="10" stroke-miterlimit="10" d="M306,415.24"/>
		<path fill="#FFFFFF" stroke="#000000" stroke-width="10" stroke-miterlimit="10" d="M476.047,598.468"/>
		<path fill="#FFFFFF" stroke="#000000" stroke-width="10" stroke-miterlimit="10" d="M306,415.24"/>
		<path fill="#FFFFFF" stroke="#000000" stroke-width="10" stroke-miterlimit="10" d="M522.557,540.241"/>
		<path fill="#FFFFFF" stroke="#000000" stroke-width="10" stroke-miterlimit="10" d="M306,415.24"/>
		<path fill="#FFFFFF" stroke="#000000" stroke-width="10" stroke-miterlimit="10" d="M549.777,470.905"/>
		<path fill="#FFFFFF" stroke="#000000" stroke-width="10" stroke-miterlimit="10" d="M306,415.24"/>
		<path fill="#FFFFFF" stroke="#000000" stroke-width="10" stroke-miterlimit="10" d="M555.271,396.563"/>
		<path fill="#FFFFFF" stroke="#000000" stroke-width="10" stroke-miterlimit="10" d="M306,415.24"/>
		<path fill="#FFFFFF" stroke="#000000" stroke-width="10" stroke-miterlimit="10" d="M538.67,323.933"/>
		<path fill="#FFFFFF" stroke="#000000" stroke-width="10" stroke-miterlimit="10" d="M306,415.24"/>
		<line fill="#FFFFFF" stroke="#000000" stroke-width="10" stroke-miterlimit="10" x1="306" y1="415.24" x2="306" y2="165.241"/>
		<path fill="#FFFFFF" stroke="#000000" stroke-width="10" stroke-miterlimit="10" d="M446.871,208.698"/>
		<path fill="#FFFFFF" stroke="#000000" stroke-width="10" stroke-miterlimit="10" d="M306,415.24"/>
		<path fill="#FFFFFF" stroke="#000000" stroke-width="10" stroke-miterlimit="10" d="M379.732,176.349"/>
		<path fill="#FFFFFF" stroke="#000000" stroke-width="10" stroke-miterlimit="10" d="M306,415.24"/>
	</g>
</g>
<path fill="#FFFFFF" stroke="#000000" stroke-width="10" stroke-miterlimit="10" d="M597.515,312.945"/>
<text transform="matrix(1 0 0 1 172.6279 556.9658)" fill="#F8F7F8" font-family="'RockwellStd'" font-size="426.793">E</text>
<rect x="223.234" y="210.712" fill="#FFFFFF" width="45.533" height="45.533"/>
<rect x="343.232" y="210.712" fill="#FFFFFF" width="45.533" height="45.533"/>
</svg>
